# Blender v2.93.5 OBJ File: 'First.blend'
# www.blender.org
mtllib First.mtl
o Куб_Куб.001
v 0.081022 0.000000 -0.020358
v 0.081022 0.043933 -0.020358
v 0.017804 0.000000 -0.013793
v 0.017804 0.043933 -0.013793
v 0.121229 0.000000 -0.021245
v 0.121229 0.043933 -0.021245
v 0.108020 0.000000 -0.113940
v 0.108020 0.043933 -0.113940
v 0.065393 0.000000 -0.070250
v 0.065393 0.043933 -0.070250
v 0.146580 0.000000 -0.062240
v 0.146580 0.043933 -0.062240
v 0.030544 0.000000 -0.106582
v 0.030544 0.043933 -0.106582
v 0.102514 0.000000 -0.021367
v 0.102514 0.043933 -0.021367
vt 0.375000 0.125000
vt 0.625000 0.125000
vt 0.625000 0.250000
vt 0.375000 0.250000
vt 0.375000 0.375000
vt 0.625000 0.375000
vt 0.625000 0.500000
vt 0.375000 0.500000
vt 0.375000 0.625000
vt 0.625000 0.625000
vt 0.625000 0.750000
vt 0.375000 0.750000
vt 0.375000 0.875000
vt 0.625000 0.875000
vt 0.625000 1.000000
vt 0.375000 1.000000
vt 0.250000 0.500000
vt 0.250000 0.750000
vt 0.125000 0.750000
vt 0.125000 0.625000
vt 0.125000 0.500000
vt 0.750000 0.500000
vt 0.875000 0.500000
vt 0.875000 0.625000
vt 0.875000 0.750000
vt 0.750000 0.750000
vt 0.375000 0.000000
vt 0.625000 0.000000
vn 0.7646 0.0000 0.6445
vn -0.0946 0.0000 -0.9955
vn 0.8505 0.0000 0.5260
vn 0.0469 0.0000 0.9989
vn 0.0000 -1.0000 0.0000
vn 0.0000 1.0000 0.0000
vn 0.8016 0.0000 -0.5979
vn -0.9543 0.0000 0.2989
vn -0.0066 0.0000 1.0000
vn -0.9907 0.0000 -0.1360
usemtl None
s off
f 9/1/1 10/2/1 4/3/1 3/4/1
f 13/5/2 14/6/2 8/7/2 7/8/2
f 11/9/3 12/10/3 6/11/3 5/12/3
f 15/13/4 16/14/4 2/15/4 1/16/4
f 13/17/5 7/8/5 11/9/5 5/12/5 15/18/5 1/19/5 9/20/5 3/21/5
f 14/22/6 4/23/6 10/24/6 2/25/6 16/26/6 6/11/6 12/10/6 8/7/6
f 7/8/7 8/7/7 12/10/7 11/9/7
f 1/27/8 2/28/8 10/2/8 9/1/8
f 5/12/9 6/11/9 16/14/9 15/13/9
f 3/4/10 4/3/10 14/6/10 13/5/10
