# Blender v2.93.5 OBJ File: 'Seventh.blend'
# www.blender.org
mtllib Seventh.mtl
o Куб
v 0.024248 -0.000000 -0.009893
v 0.024248 0.048761 -0.009893
v 0.044877 -0.000000 -0.084878
v 0.044877 0.048761 -0.084878
v 0.065105 -0.000000 -0.011869
v 0.065105 0.048761 -0.011869
v 0.082355 -0.000000 -0.059990
v 0.082355 0.048761 -0.059990
v 0.051071 -0.000000 -0.060599
v 0.051071 0.048761 -0.060599
v 0.045629 -0.000000 -0.028389
v 0.045629 0.048761 -0.028389
v 0.009281 -0.000000 -0.060940
v 0.009281 0.048761 -0.060940
v 0.057087 -0.000000 -0.039829
v 0.057087 0.048761 -0.039829
v 0.045089 0.048761 -0.056631
v 0.045089 -0.000000 -0.056631
v 0.038212 -0.000000 -0.060563
v 0.036843 0.048761 -0.064908
v 0.033733 -0.000000 -0.040413
v 0.061096 0.048761 -0.025849
v 0.045359 0.048761 -0.042510
v 0.045359 -0.000000 -0.042510
v 0.033733 0.048761 -0.040413
v 0.061096 -0.000000 -0.025849
vt 0.375000 0.125000
vt 0.625000 0.125000
vt 0.625000 0.194353
vt 0.375000 0.178607
vt 0.375000 0.375000
vt 0.625000 0.375000
vt 0.625000 0.500000
vt 0.375000 0.500000
vt 0.375000 0.687500
vt 0.625000 0.687500
vt 0.625000 0.750000
vt 0.375000 0.750000
vt 0.375000 0.875000
vt 0.625000 0.875000
vt 0.625000 1.000000
vt 0.375000 1.000000
vt 0.250000 0.687500
vt 0.250000 0.750000
vt 0.750000 0.687500
vt 0.875000 0.687500
vt 0.875000 0.750000
vt 0.750000 0.750000
vt 0.125000 0.687500
vt 0.125000 0.750000
vt 0.375000 0.250000
vt 0.625000 0.250000
vt 0.125000 0.500000
vt 0.250000 0.500000
vt 0.250000 0.625000
vt 0.125000 0.625000
vt 0.125000 0.571393
vt 0.750000 0.500000
vt 0.750000 0.625000
vt 0.625000 0.625000
vt 0.875000 0.500000
vt 0.875000 0.555647
vt 0.875000 0.625000
vt 0.375000 0.625000
vt 0.375000 0.062500
vt 0.625000 0.062500
vt 0.375000 0.000000
vt 0.625000 0.000000
vn -0.0634 -0.0453 -0.9970
vn 0.0195 0.0000 -0.9998
vn 0.9613 0.0000 -0.2757
vn 0.6543 0.0000 0.7563
vn 0.0000 -1.0000 0.0000
vn 0.0000 1.0000 0.0000
vn -0.6469 0.0000 0.7626
vn 0.9690 -0.0000 -0.2472
vn 0.6237 0.0000 0.7817
vn -0.6430 0.0000 0.7659
vn -0.9487 -0.0274 -0.3149
vn -0.9549 0.0000 -0.2968
usemtl None
s off
f 13/1/1 14/2/1 20/3/1 19/4/1
f 9/5/2 10/6/2 8/7/2 7/8/2
f 26/9/3 22/10/3 6/11/3 5/12/3
f 11/13/4 12/14/4 2/15/4 1/16/4
f 24/17/5 26/9/5 5/12/5 11/18/5
f 23/19/6 25/20/6 2/21/6 12/22/6
f 22/10/6 23/19/6 12/22/6 6/11/6
f 21/23/5 24/17/5 11/18/5 1/24/5
f 5/12/7 6/11/7 12/14/7 11/13/7
f 3/25/8 4/26/8 10/6/8 9/5/8
f 3/27/5 9/28/5 18/29/5 13/30/5 19/31/5
f 8/7/6 10/32/6 17/33/6 16/34/6
f 10/32/6 4/35/6 20/36/6 14/37/6 17/33/6
f 9/28/5 7/8/5 15/38/5 18/29/5
f 7/8/9 8/7/9 16/34/9 15/38/9
f 21/39/10 25/40/10 14/2/10 13/1/10
f 19/4/11 20/3/11 4/26/11 3/25/11
f 1/41/12 2/42/12 25/40/12 21/39/12
f 13/30/5 18/29/5 24/17/5 21/23/5
f 16/34/6 17/33/6 23/19/6 22/10/6
f 17/33/6 14/37/6 25/20/6 23/19/6
f 18/29/5 15/38/5 26/9/5 24/17/5
f 15/38/3 16/34/3 22/10/3 26/9/3
