<?xml version="1.0" standalone="no"?>
<!DOCTYPE svg PUBLIC "-//W3C//DTD SVG 20010904//EN"
 "http://www.w3.org/TR/2001/REC-SVG-20010904/DTD/svg10.dtd">
<svg version="1.0" xmlns="http://www.w3.org/2000/svg"
 width="874.000000pt" height="868.000000pt" viewBox="0 0 874.000000 868.000000"
 preserveAspectRatio="xMidYMid meet">

<g transform="translate(0.000000,868.000000) scale(0.100000,-0.100000)"
fill="#000000" stroke="none">
<path d="M7556 8096 c-64 -27 -115 -70 -152 -128 l-24 -38 -818 0 c-449 0
-1152 -4 -1562 -10 -410 -5 -1514 -11 -2454 -13 l-1709 -4 -31 27 c-70 61
-180 96 -252 80 -159 -36 -254 -143 -262 -295 -3 -61 0 -78 24 -130 65 -137
195 -206 340 -181 39 7 42 5 84 -41 24 -26 114 -122 199 -213 298 -315 304
-322 583 -621 58 -63 156 -164 217 -226 61 -62 111 -118 111 -125 -1 -7 -9
-38 -20 -68 -26 -75 -25 -128 7 -204 25 -61 25 -66 10 -88 -9 -13 -42 -57 -72
-98 -30 -41 -66 -91 -80 -110 -13 -19 -39 -55 -57 -81 -137 -189 -208 -289
-242 -338 -22 -31 -60 -84 -85 -118 -25 -34 -61 -84 -79 -110 -19 -26 -70
-100 -116 -163 -45 -63 -113 -159 -151 -213 -39 -55 -79 -112 -90 -127 -11
-16 -59 -82 -107 -149 -48 -66 -92 -129 -98 -141 -6 -12 -44 -36 -83 -54 -83
-37 -126 -81 -163 -163 -50 -115 -20 -258 73 -346 l40 -38 7 -1275 8 -1274
-26 -30 c-73 -88 -92 -219 -44 -320 57 -121 163 -186 293 -178 40 3 90 14 117
25 48 22 120 88 143 133 22 43 36 131 30 189 -6 55 -5 56 27 76 18 12 88 59
156 105 68 47 133 92 146 100 38 26 189 128 236 161 328 230 451 310 468 305
121 -33 257 17 327 120 16 24 36 46 42 49 7 2 61 7 120 10 60 3 158 10 218 15
130 11 340 26 555 40 333 21 620 41 735 50 66 6 147 10 180 10 33 0 103 4 155
10 105 11 232 20 695 51 403 27 579 38 750 48 l140 8 51 -33 c61 -39 140 -64
203 -64 50 -1 38 9 268 -210 253 -241 404 -383 623 -590 102 -96 192 -181 201
-189 9 -9 72 -69 142 -135 l126 -118 7 -57 c13 -116 106 -233 207 -263 68 -19
165 -15 224 11 62 27 126 93 156 159 31 72 29 180 -7 254 -27 56 -105 138
-132 138 -7 0 -18 8 -23 19 -11 19 -31 184 -56 446 -8 88 -19 201 -25 250 -5
50 -17 164 -25 255 -9 91 -20 203 -25 250 -6 47 -19 173 -30 280 -10 107 -26
260 -34 340 -9 80 -20 197 -26 260 -6 63 -15 151 -20 195 -11 86 -24 209 -41
397 l-11 118 33 41 c60 76 80 172 55 269 -26 101 -85 167 -189 210 -59 25 -63
30 -118 120 -69 114 -123 201 -184 295 -25 39 -49 79 -55 90 -5 11 -41 70 -79
130 -38 61 -91 146 -117 190 -27 44 -70 113 -96 152 -26 40 -48 75 -48 77 0 3
-13 25 -29 48 -15 24 -52 81 -81 128 -30 47 -66 105 -82 130 -15 25 -36 56
-46 69 -9 13 -24 36 -32 51 -13 25 -50 86 -93 154 -7 11 -39 63 -73 115 -90
141 -90 141 -89 263 l0 106 101 104 c56 57 129 135 164 173 66 72 138 149 446
471 99 104 230 242 290 306 l109 117 85 -6 c71 -4 94 -2 141 16 134 51 214
192 188 334 -13 73 -28 105 -76 158 -84 92 -222 123 -337 75z m-308 -470 c-2
-8 -50 -64 -108 -124 -58 -60 -132 -138 -164 -173 -33 -35 -136 -144 -230
-243 -262 -274 -266 -278 -350 -367 -43 -46 -100 -108 -128 -136 l-49 -53 -65
0 c-78 0 -168 -33 -218 -81 -19 -18 -49 -60 -67 -95 -29 -59 -31 -69 -26 -136
6 -83 29 -138 84 -199 51 -56 110 -80 211 -87 94 -6 85 2 167 -132 28 -45 68
-110 89 -144 21 -33 49 -77 61 -96 12 -19 38 -60 57 -90 33 -52 95 -152 121
-194 7 -11 39 -63 72 -116 33 -53 65 -105 72 -116 6 -10 48 -77 92 -149 45
-71 87 -139 93 -150 7 -11 25 -39 40 -62 15 -23 28 -44 28 -47 0 -3 19 -35 43
-70 23 -36 58 -91 78 -123 19 -32 62 -101 95 -153 88 -141 84 -125 44 -205
-30 -60 -35 -80 -35 -140 1 -123 68 -232 174 -280 48 -23 61 -41 61 -87 0 -21
4 -68 10 -105 5 -38 15 -122 21 -188 6 -66 17 -178 24 -250 8 -71 19 -184 25
-250 11 -123 27 -272 36 -335 3 -19 9 -80 14 -135 8 -90 20 -217 49 -505 6
-52 15 -142 21 -200 5 -58 15 -143 20 -190 13 -104 27 -253 36 -379 l7 -94
-22 15 c-12 9 -66 58 -119 109 -81 78 -255 243 -422 400 -72 67 -368 347 -460
435 -52 50 -113 107 -135 127 l-40 36 0 108 c0 98 -3 113 -28 164 -32 67 -92
119 -168 150 -137 54 -309 -14 -378 -149 -11 -21 -25 -43 -33 -49 -7 -5 -101
-16 -208 -22 -398 -25 -478 -31 -610 -41 -145 -11 -321 -23 -575 -39 -88 -6
-259 -17 -380 -26 -121 -9 -292 -20 -380 -26 -88 -5 -214 -14 -280 -19 -112
-10 -194 -15 -570 -39 -82 -5 -230 -15 -327 -22 l-178 -13 -42 43 c-126 128
-317 129 -445 1 -55 -54 -83 -129 -83 -219 0 -80 15 -64 -180 -196 -80 -54
-172 -117 -205 -140 -99 -69 -215 -148 -315 -217 -52 -35 -146 -100 -209 -143
-88 -60 -115 -74 -122 -64 -5 8 -9 556 -9 1225 l0 1211 48 31 c111 72 157 213
116 353 -9 30 -25 66 -35 81 -11 14 -19 29 -19 32 0 3 29 48 65 99 112 159
264 372 273 382 4 6 35 48 68 93 32 46 68 96 79 112 27 37 70 100 130 185 27
39 97 138 156 220 159 222 168 234 244 340 158 221 152 215 238 244 131 44
199 117 228 248 10 43 9 63 -4 118 -32 130 -124 209 -278 239 -25 5 -200 175
-304 296 -26 30 -116 127 -199 215 -84 88 -182 192 -219 232 -37 39 -84 89
-104 111 -21 21 -94 99 -163 172 -69 74 -148 159 -177 190 -34 36 -48 58 -42
65 6 6 780 12 2157 17 1181 4 2163 9 2182 11 19 1 473 4 1008 5 851 3 973 1
970 -12z"/>
</g>
</svg>
