<?xml version="1.0" standalone="no"?>
<!DOCTYPE svg PUBLIC "-//W3C//DTD SVG 20010904//EN"
 "http://www.w3.org/TR/2001/REC-SVG-20010904/DTD/svg10.dtd">
<svg version="1.0" xmlns="http://www.w3.org/2000/svg"
 width="1314.000000pt" height="1028.000000pt" viewBox="0 0 1314.000000 1028.000000"
 preserveAspectRatio="xMidYMid meet">
<metadata>
Created by potrace 1.16, written by Peter Selinger 2001-2019
</metadata>
<g transform="translate(0.000000,1028.000000) scale(0.100000,-0.100000)"
fill="#000000" stroke="none">
<path d="M8597 9361 c-27 -11 -66 -38 -86 -60 -32 -35 -44 -41 -77 -41 -21 0
-111 -7 -199 -15 -88 -8 -248 -22 -355 -30 -363 -27 -594 -46 -820 -66 -124
-11 -310 -26 -415 -34 -214 -15 -616 -48 -870 -71 -93 -8 -282 -24 -420 -34
-358 -28 -971 -78 -1100 -90 -60 -6 -195 -17 -300 -25 -283 -21 -552 -43 -810
-66 -126 -11 -286 -24 -355 -29 l-125 -9 -53 31 c-48 27 -60 30 -121 26 -79
-4 -119 -26 -166 -92 -27 -37 -30 -48 -30 -116 1 -61 5 -82 24 -112 l23 -38
-21 -137 c-12 -76 -26 -172 -31 -213 -6 -41 -19 -131 -30 -200 -26 -167 -67
-445 -80 -550 -6 -47 -19 -137 -30 -200 -10 -63 -33 -216 -50 -340 -17 -124
-40 -279 -51 -345 -21 -129 -50 -329 -79 -545 -10 -74 -23 -164 -30 -198 -6
-35 -20 -125 -30 -200 -36 -261 -60 -428 -80 -547 -11 -66 -26 -169 -34 -230
-29 -210 -55 -391 -76 -520 -11 -71 -41 -272 -66 -445 -55 -386 -133 -915
-174 -1190 -17 -113 -39 -270 -50 -350 -11 -80 -24 -167 -30 -195 -6 -27 -19
-115 -30 -195 -21 -153 -52 -373 -71 -502 -10 -69 -16 -82 -55 -128 -65 -77
-81 -158 -45 -235 25 -53 52 -80 111 -110 62 -31 101 -31 167 -1 95 44 139
122 128 224 -6 60 -11 52 110 187 34 39 109 124 166 190 56 66 106 122 109
125 4 3 63 70 131 150 69 80 143 165 166 190 76 85 258 293 326 374 38 45 74
86 80 91 7 6 52 57 102 115 49 58 133 155 186 215 54 61 166 189 250 285 84
96 178 204 209 240 32 36 95 108 140 160 45 52 108 124 140 160 31 36 75 85
96 110 39 45 73 83 150 170 22 25 71 81 109 125 37 44 94 109 126 145 31 36
94 108 139 160 46 52 97 111 115 130 17 19 63 71 101 116 67 78 227 261 344
394 80 91 270 307 302 344 14 17 29 28 32 25 5 -5 43 -126 103 -329 14 -47 39
-128 55 -180 34 -110 24 -80 129 -425 45 -148 90 -297 99 -330 45 -152 71
-239 105 -350 20 -66 65 -217 101 -335 67 -224 110 -367 124 -410 4 -14 19
-63 33 -110 28 -93 50 -165 158 -520 39 -129 74 -244 76 -255 3 -11 17 -60 33
-110 15 -49 37 -121 48 -160 l21 -70 -20 -59 c-17 -50 -19 -67 -10 -102 19
-76 58 -125 136 -171 30 -18 150 -16 187 3 18 9 49 35 70 58 l39 41 112 3 c61
1 306 9 542 18 237 8 572 19 745 24 636 20 1011 32 1240 40 l235 8 22 -23 c91
-96 221 -98 313 -6 63 63 80 128 56 210 -16 53 -15 55 8 95 27 47 161 268 243
401 30 50 72 117 92 150 20 33 40 67 46 76 5 9 30 50 54 90 24 41 54 90 66
109 22 34 127 204 243 395 30 50 65 106 77 125 12 19 47 75 76 124 30 49 64
105 76 125 13 20 26 43 30 52 9 16 114 188 142 229 10 14 39 62 67 108 83 140
222 368 295 485 14 23 77 125 138 227 62 102 122 193 133 203 11 9 33 17 50
17 71 0 147 66 172 151 39 128 -50 259 -185 275 -31 3 -60 9 -65 13 -9 6 -101
125 -147 190 -12 17 -56 75 -97 129 -41 53 -155 203 -253 332 -98 129 -184
242 -190 250 -37 47 -135 177 -152 201 -11 15 -90 119 -175 231 -85 112 -217
287 -295 389 -77 102 -214 283 -305 402 -91 120 -174 230 -185 245 -21 29
-112 149 -266 350 -52 68 -103 136 -114 152 -22 30 -153 203 -280 369 -44 57
-102 134 -130 171 -27 37 -105 141 -173 231 -80 107 -121 168 -117 178 25 64
27 98 12 151 -36 122 -165 187 -280 141z m-61 -361 c19 -16 51 -34 72 -41 30
-9 51 -26 88 -76 27 -35 63 -81 79 -102 36 -46 111 -145 168 -222 49 -65 256
-339 366 -483 42 -54 81 -106 86 -115 6 -9 13 -18 16 -21 6 -6 238 -311 289
-380 46 -64 250 -333 331 -437 35 -45 93 -122 129 -170 83 -112 197 -262 253
-333 23 -30 72 -95 107 -143 36 -48 86 -116 113 -150 26 -34 61 -80 78 -102
16 -22 67 -88 112 -147 45 -59 110 -144 144 -190 34 -46 69 -92 78 -103 9 -11
56 -74 106 -140 155 -205 316 -418 358 -472 58 -75 63 -89 66 -167 2 -67 0
-75 -39 -141 -22 -38 -45 -78 -51 -88 -5 -9 -52 -86 -104 -170 -149 -242 -197
-321 -257 -419 -31 -51 -64 -104 -73 -118 -9 -14 -52 -83 -95 -155 -43 -71
-115 -191 -161 -265 -46 -74 -107 -173 -135 -220 -28 -47 -74 -121 -101 -165
-27 -44 -77 -125 -110 -180 -33 -55 -78 -129 -100 -165 -37 -58 -128 -208
-154 -252 -5 -9 -39 -63 -74 -120 -134 -217 -167 -270 -186 -303 -11 -18 -54
-90 -95 -159 -65 -109 -80 -127 -110 -137 -44 -15 -89 -44 -117 -78 l-23 -26
-282 -7 c-156 -4 -391 -11 -523 -17 -132 -6 -427 -16 -655 -21 -228 -6 -532
-15 -675 -20 -143 -6 -372 -15 -510 -20 l-250 -10 -55 39 c-30 21 -65 42 -78
45 -27 9 -37 32 -91 216 -23 80 -51 172 -61 205 -21 65 -99 323 -155 512 -19
65 -47 156 -62 203 -14 47 -32 105 -38 130 -7 25 -43 144 -80 265 -36 121 -82
272 -101 335 -19 63 -43 142 -54 175 -10 33 -35 116 -55 185 -20 69 -56 188
-80 265 -23 77 -59 196 -80 265 -42 141 -60 202 -104 345 -44 142 -127 423
-139 468 -10 34 -8 42 19 82 53 79 51 173 -6 247 -90 119 -256 116 -344 -6
-28 -40 -34 -58 -40 -121 l-6 -73 -188 -216 c-104 -118 -199 -226 -210 -239
-12 -13 -74 -84 -137 -157 -63 -74 -123 -143 -134 -153 -10 -11 -59 -67 -109
-126 -50 -58 -108 -124 -128 -146 -20 -22 -74 -83 -120 -137 -284 -327 -390
-448 -426 -488 -22 -25 -107 -121 -188 -215 -81 -93 -166 -190 -188 -215 -23
-25 -97 -110 -166 -190 -69 -80 -128 -147 -132 -150 -4 -3 -40 -44 -80 -91
-88 -103 -327 -378 -377 -434 -20 -22 -81 -92 -136 -155 -54 -63 -117 -136
-140 -161 -23 -25 -66 -74 -96 -109 -30 -35 -77 -89 -105 -120 -27 -30 -92
-105 -144 -165 -52 -61 -115 -133 -140 -161 -25 -27 -74 -83 -109 -122 -35
-40 -68 -72 -74 -72 -7 0 -8 14 -4 37 3 21 13 88 21 148 9 61 27 180 40 265
27 170 70 471 86 593 5 43 14 102 20 130 5 29 18 115 29 192 28 203 56 398 85
580 26 166 42 280 75 525 11 80 24 168 30 195 5 28 17 102 25 165 18 132 44
313 81 550 14 91 43 289 64 440 60 421 127 881 150 1020 11 69 26 175 35 235
8 61 28 200 44 310 16 110 53 358 81 550 28 193 57 388 64 435 8 47 29 188 47
314 l33 229 46 30 c25 17 59 49 75 71 l31 41 219 17 c121 9 333 26 470 37 138
12 309 26 380 31 72 6 148 13 170 15 22 3 130 12 240 20 110 8 306 23 435 34
398 34 605 51 865 71 138 10 327 26 420 35 94 8 262 22 375 30 113 8 246 19
295 24 50 6 164 15 255 21 91 6 206 15 255 20 50 5 207 19 350 30 143 11 341
27 440 36 280 24 505 41 564 43 46 1 58 -3 87 -29z"/>
</g>
</svg>
