<?xml version="1.0" standalone="no"?>
<!DOCTYPE svg PUBLIC "-//W3C//DTD SVG 20010904//EN"
 "http://www.w3.org/TR/2001/REC-SVG-20010904/DTD/svg10.dtd">
<svg version="1.0" xmlns="http://www.w3.org/2000/svg"
 width="832.000000pt" height="844.000000pt" viewBox="0 0 832.000000 844.000000"
 preserveAspectRatio="xMidYMid meet">
<metadata>
Created by potrace 1.16, written by Peter Selinger 2001-2019
</metadata>
<g transform="translate(0.000000,844.000000) scale(0.100000,-0.100000)"
fill="#000000" stroke="none">
<path d="M3664 7671 c-127 -60 -196 -210 -160 -350 19 -75 36 -102 99 -165
l50 -49 9 -696 c5 -383 7 -912 6 -1176 l-3 -480 -80 3 c-44 1 -114 7 -155 12
-148 19 -247 30 -360 40 -63 6 -176 17 -250 25 -74 7 -191 19 -260 25 -69 6
-159 15 -200 20 -210 25 -409 45 -535 54 -154 11 -445 37 -525 48 -85 11 -85
11 -140 66 -78 78 -123 97 -235 97 -80 0 -95 -3 -136 -27 -54 -32 -110 -91
-139 -147 -31 -62 -28 -185 6 -253 74 -146 253 -213 394 -147 30 14 81 52 113
83 49 49 62 57 85 52 15 -3 77 -10 137 -16 61 -5 148 -14 195 -20 47 -6 130
-14 185 -20 55 -5 170 -16 255 -25 85 -9 200 -20 255 -25 121 -11 271 -27 380
-40 44 -6 130 -15 190 -20 61 -5 175 -16 255 -25 80 -8 192 -20 250 -25 258
-24 300 -29 308 -34 6 -3 12 -467 16 -1113 3 -610 9 -1293 12 -1520 l6 -411
-35 -39 c-100 -111 -120 -248 -55 -376 69 -137 250 -199 389 -135 121 56 179
145 179 273 0 111 -18 163 -81 227 -31 32 -68 62 -82 67 l-25 10 -6 578 c-3
318 -9 989 -12 1491 l-6 912 53 0 c30 0 92 -6 139 -14 47 -8 171 -22 275 -31
180 -15 262 -23 435 -45 41 -5 129 -14 195 -20 66 -6 154 -15 195 -20 41 -5
152 -16 245 -24 173 -16 301 -30 435 -46 41 -5 129 -14 195 -20 136 -12 396
-38 468 -46 42 -5 51 -11 72 -43 79 -127 221 -178 364 -133 76 23 159 105 184
181 51 158 -12 310 -158 382 -60 29 -70 31 -142 26 -90 -6 -136 -26 -199 -88
l-42 -42 -69 7 c-37 3 -102 11 -143 16 -41 5 -158 17 -260 25 -102 9 -221 20
-265 25 -44 6 -152 17 -240 25 -88 9 -194 20 -235 25 -41 5 -147 16 -235 25
-88 8 -203 19 -255 25 -52 6 -167 17 -255 25 -88 8 -194 19 -235 24 -41 5
-127 15 -190 21 -63 6 -134 15 -158 20 -23 6 -66 10 -96 10 -37 0 -58 5 -67
16 -10 12 -15 250 -22 1194 l-10 1179 54 55 c80 79 109 143 109 237 0 55 -5
85 -20 114 -11 22 -20 44 -20 50 0 20 -84 93 -136 119 -76 38 -176 37 -260 -3z"/>
</g>
</svg>
