<?xml version="1.0" standalone="no"?>
<!DOCTYPE svg PUBLIC "-//W3C//DTD SVG 20010904//EN"
 "http://www.w3.org/TR/2001/REC-SVG-20010904/DTD/svg10.dtd">
<svg version="1.0" xmlns="http://www.w3.org/2000/svg"
 width="1190.000000pt" height="894.000000pt" viewBox="0 0 1190.000000 894.000000"
 preserveAspectRatio="xMidYMid meet">

<g transform="translate(0.000000,894.000000) scale(0.100000,-0.100000)"
fill="#000000" stroke="none">
<path d="M9574 8115 c-61 -16 -146 -64 -192 -108 -43 -40 -98 -123 -107 -160
-4 -15 -15 -32 -25 -37 -19 -10 -350 -35 -675 -50 -294 -14 -540 -29 -592 -35
-49 -5 -403 -26 -783 -45 -118 -6 -298 -17 -400 -25 -184 -14 -317 -22 -816
-50 -348 -20 -317 -22 -340 23 -36 71 -137 168 -202 194 -48 19 -136 37 -177
37 -153 0 -309 -100 -375 -240 -27 -58 -35 -68 -63 -73 -59 -10 -131 -17 -287
-26 -85 -5 -247 -16 -360 -25 -113 -8 -293 -20 -400 -25 -291 -15 -518 -28
-680 -39 -191 -14 -436 -28 -700 -41 -118 -6 -296 -17 -395 -25 -99 -8 -212
-15 -252 -15 l-72 0 -34 53 c-55 84 -103 123 -210 167 -56 23 -226 28 -274 9
-90 -37 -120 -55 -165 -97 -51 -47 -102 -126 -125 -192 -14 -40 -17 -221 -5
-248 42 -86 73 -135 103 -169 43 -48 116 -99 152 -108 54 -14 62 -40 92 -330
9 -82 24 -204 34 -270 11 -66 24 -167 31 -225 15 -137 28 -243 45 -360 8 -52
23 -178 35 -280 11 -102 25 -210 31 -240 5 -30 14 -91 19 -135 5 -44 16 -136
24 -205 9 -69 20 -165 26 -214 6 -49 12 -92 14 -95 3 -4 14 -94 26 -201 11
-107 29 -251 40 -320 10 -69 24 -168 30 -220 6 -52 20 -162 30 -245 11 -82 33
-262 50 -400 17 -137 35 -275 40 -305 5 -30 17 -116 25 -190 26 -220 45 -372
55 -420 14 -70 13 -73 -46 -120 -122 -97 -164 -188 -164 -357 0 -64 4 -114 10
-118 6 -3 10 -14 10 -24 0 -26 77 -137 122 -175 101 -87 239 -121 371 -92 42
10 79 21 82 26 3 5 20 16 38 25 74 35 150 129 183 225 25 73 25 224 -1 295
-21 60 -68 132 -107 163 -15 13 -28 29 -28 36 0 11 43 109 105 241 8 17 40 86
71 155 66 148 90 199 138 302 20 43 36 80 36 83 0 2 17 42 39 87 94 201 111
238 111 243 0 2 21 49 46 102 25 54 54 116 64 138 32 72 181 399 210 460 16
33 50 107 75 165 26 58 64 141 85 185 21 44 40 90 44 101 4 12 15 29 25 38 16
15 25 15 65 5 66 -16 159 -6 239 25 77 31 107 29 161 -12 19 -15 70 -47 113
-71 43 -24 96 -56 118 -71 22 -15 56 -36 75 -47 54 -29 322 -189 390 -233 28
-18 205 -125 225 -136 11 -6 45 -26 75 -46 30 -19 62 -38 70 -41 8 -4 56 -33
105 -65 l90 -57 6 -100 c6 -118 26 -172 90 -252 72 -90 158 -140 269 -154 266
-33 489 176 480 450 -1 25 -1 51 -1 58 1 13 40 37 171 106 52 27 106 58 120
67 14 9 75 43 135 76 61 32 118 63 127 69 39 23 291 163 398 221 63 34 127 72
142 83 14 12 31 21 36 21 6 0 69 34 141 75 72 41 140 75 149 75 10 0 29 -12
43 -26 27 -29 116 -83 169 -101 19 -7 81 -13 137 -13 l103 0 20 -37 c11 -21
36 -63 55 -93 19 -30 34 -61 35 -67 0 -7 4 -13 10 -13 5 0 21 -21 35 -47 14
-27 45 -79 69 -118 25 -38 73 -117 107 -175 34 -58 69 -113 77 -122 8 -9 26
-38 41 -65 40 -73 62 -109 109 -179 23 -36 42 -66 42 -68 0 -3 55 -94 182
-299 40 -65 98 -160 128 -211 30 -50 72 -117 93 -148 20 -31 37 -59 37 -62 0
-4 15 -28 33 -55 47 -70 91 -144 161 -267 22 -38 47 -78 56 -89 9 -11 32 -46
51 -78 19 -32 39 -66 44 -76 6 -9 26 -41 46 -71 55 -83 56 -93 15 -141 -19
-23 -48 -74 -63 -113 -24 -60 -28 -85 -27 -161 1 -107 27 -189 94 -288 149
-221 460 -248 648 -56 18 18 32 38 32 45 0 6 7 17 16 24 60 51 73 314 20 432
-42 93 -102 165 -178 211 l-29 17 6 818 c3 449 8 952 11 1117 3 165 9 743 14
1285 12 1440 29 2200 48 2223 8 9 20 17 26 17 35 0 126 57 179 112 102 106
136 230 106 394 -27 150 -177 294 -338 324 -69 13 -104 12 -167 -5z m-306
-584 c8 -4 19 -17 25 -28 36 -61 70 -103 107 -134 24 -19 53 -43 66 -54 l24
-20 -10 -565 c-5 -311 -10 -767 -10 -1015 0 -247 -5 -621 -10 -830 -5 -209
-14 -778 -19 -1265 -16 -1352 -22 -1640 -35 -1640 -7 0 -23 18 -36 41 -14 22
-35 55 -47 72 -12 18 -33 54 -48 81 -15 27 -35 61 -44 75 -34 50 -88 137 -117
185 -16 27 -45 75 -64 107 -19 32 -63 105 -97 161 -34 57 -71 114 -82 127 -12
13 -21 29 -21 34 0 5 -18 36 -40 68 -22 32 -40 61 -40 65 0 3 -15 29 -33 57
-19 29 -46 72 -60 97 -15 25 -42 68 -59 97 -18 28 -59 96 -92 150 -32 54 -67
109 -77 123 -11 14 -30 45 -44 70 -14 25 -45 77 -69 115 -25 39 -80 128 -123
199 -43 71 -92 152 -110 180 -18 28 -40 65 -49 81 -9 17 -33 55 -54 85 -20 31
-41 66 -44 78 -7 22 -5 29 43 119 55 104 47 273 -19 384 -138 233 -418 288
-627 123 -87 -68 -152 -180 -154 -263 -1 -72 -19 -102 -84 -136 -64 -33 -124
-66 -245 -135 -41 -24 -97 -54 -125 -68 -27 -13 -62 -33 -76 -43 -14 -10 -71
-41 -125 -70 -54 -28 -103 -55 -109 -59 -9 -7 -84 -49 -364 -204 -81 -45 -134
-74 -226 -126 -130 -72 -120 -70 -174 -35 -63 42 -167 75 -235 75 -66 0 -203
-45 -241 -79 -45 -40 -51 -38 -230 74 -66 41 -136 82 -155 91 -19 9 -43 23
-52 31 -9 8 -72 48 -140 88 -236 141 -354 212 -488 295 -213 131 -244 150
-262 156 -26 9 -30 35 -13 90 24 78 19 116 -32 262 -23 66 -124 168 -203 206
-56 26 -79 31 -164 34 -105 4 -172 -8 -218 -40 -14 -10 -30 -18 -35 -18 -11 0
-101 -95 -132 -139 -75 -108 -80 -296 -10 -432 18 -36 18 -37 -6 -85 -28 -55
-72 -150 -140 -304 -26 -58 -61 -134 -77 -170 -37 -79 -61 -131 -128 -280 -29
-63 -68 -148 -86 -188 -19 -40 -34 -75 -34 -77 0 -4 -59 -134 -100 -220 -53
-112 -120 -256 -120 -260 0 -5 -60 -137 -159 -348 -23 -49 -51 -112 -62 -140
-11 -29 -24 -56 -29 -62 -4 -5 -20 -40 -35 -77 -14 -36 -35 -74 -45 -83 -21
-19 -17 -36 -40 165 -6 52 -17 136 -25 185 -8 50 -22 153 -30 230 -9 77 -25
201 -35 275 -10 74 -24 176 -29 225 -23 192 -42 344 -56 440 -8 55 -26 192
-40 305 -78 640 -84 689 -100 790 -8 47 -21 153 -30 235 -9 83 -25 209 -35
280 -11 72 -27 195 -35 275 -9 80 -25 206 -36 280 -11 74 -24 171 -29 215 -23
206 -32 280 -50 405 -18 126 -25 199 -21 227 0 7 28 28 60 47 81 47 122 95
176 204 41 81 49 92 73 92 15 0 108 5 207 10 99 6 263 14 365 20 102 5 248 14
325 19 229 16 463 30 770 46 160 8 308 17 330 20 104 13 645 43 937 52 l186 5
17 -33 c51 -100 161 -187 263 -209 99 -21 215 -10 294 27 85 40 158 115 195
200 15 34 33 65 41 68 12 4 64 9 447 35 83 5 215 15 295 20 150 11 403 25 715
40 99 5 236 13 305 19 151 12 397 26 780 47 157 8 335 19 395 24 110 9 433 29
555 34 36 1 67 3 70 4 3 1 11 -2 18 -7z"/>
</g>
</svg>
