<?xml version="1.0" standalone="no"?>
<!DOCTYPE svg PUBLIC "-//W3C//DTD SVG 20010904//EN"
 "http://www.w3.org/TR/2001/REC-SVG-20010904/DTD/svg10.dtd">
<svg version="1.0" xmlns="http://www.w3.org/2000/svg"
 width="762.000000pt" height="744.000000pt" viewBox="0 0 762.000000 744.000000"
 preserveAspectRatio="xMidYMid meet">

<g transform="translate(0.000000,744.000000) scale(0.100000,-0.100000)"
fill="#000000" stroke="none">
<path d="M3484 6956 c-51 -23 -113 -84 -124 -124 -22 -79 -6 -177 35 -218 8
-9 15 -22 15 -30 0 -15 -86 -352 -116 -453 -9 -29 -26 -94 -39 -145 -13 -50
-37 -140 -53 -201 -17 -60 -46 -173 -66 -250 -35 -133 -90 -337 -122 -452
l-15 -53 -1011 0 -1011 0 -52 49 c-70 67 -139 85 -228 60 -120 -33 -185 -195
-122 -303 48 -82 110 -116 214 -116 51 0 60 -3 97 -37 23 -21 75 -67 115 -102
41 -36 79 -69 84 -75 9 -10 248 -221 380 -336 28 -25 123 -108 209 -185 87
-77 197 -173 245 -214 47 -41 91 -79 96 -86 6 -6 59 -54 119 -106 61 -52 119
-103 131 -114 12 -11 69 -62 128 -113 59 -52 111 -101 116 -111 10 -17 -4 -84
-64 -301 -14 -52 -43 -162 -65 -245 -22 -82 -49 -184 -60 -225 -11 -41 -34
-124 -50 -185 -66 -252 -116 -439 -155 -585 -12 -47 -36 -137 -53 -200 -16
-63 -44 -167 -61 -230 -18 -63 -35 -128 -39 -145 -6 -24 -20 -36 -67 -60 -135
-68 -169 -223 -74 -338 17 -20 44 -44 61 -53 42 -22 154 -22 193 -2 74 40 125
126 125 213 0 48 -3 45 240 255 52 45 113 99 135 119 22 21 108 95 190 166 83
71 168 146 190 166 22 20 66 59 97 85 134 116 404 351 422 369 51 50 192 165
202 165 6 0 42 -28 80 -63 38 -34 105 -94 149 -132 44 -38 156 -136 249 -219
277 -247 366 -326 486 -431 63 -55 126 -111 141 -125 15 -14 53 -47 85 -75 32
-27 84 -74 116 -104 55 -51 57 -56 52 -91 -9 -55 19 -139 58 -177 49 -47 122
-77 172 -70 52 7 130 50 154 85 79 114 43 266 -78 327 -43 22 -51 31 -60 67
-6 24 -22 77 -35 118 -13 41 -29 93 -34 115 -5 22 -26 96 -46 165 -42 141 -62
214 -99 348 -14 51 -27 96 -30 101 -3 5 -17 49 -30 97 -48 175 -67 240 -91
319 -13 44 -38 130 -55 190 -17 61 -39 139 -50 175 -47 153 -80 275 -80 296 0
13 13 32 34 47 19 15 47 39 62 55 16 15 83 75 149 132 66 56 152 131 190 165
39 35 165 145 280 245 116 101 241 210 279 244 97 85 163 143 230 201 32 28
66 57 75 66 9 9 50 45 91 80 41 35 91 78 110 95 19 18 82 72 139 122 98 86
104 90 133 80 16 -6 55 -8 88 -6 76 5 129 40 170 111 39 67 40 125 5 192 -45
84 -101 119 -195 119 -53 0 -74 -5 -111 -27 l-46 -27 -1111 0 -1111 0 -15 28
c-13 25 -100 316 -157 527 -11 39 -41 144 -68 235 -27 91 -58 201 -71 245 -12
44 -32 114 -44 155 -13 41 -43 144 -67 228 -39 139 -42 157 -30 185 39 95 44
131 28 188 -35 120 -176 191 -283 145z m100 -588 c2 -7 13 -42 25 -78 11 -36
30 -99 40 -140 40 -148 141 -503 181 -630 11 -36 36 -123 56 -195 20 -71 47
-166 60 -209 20 -63 22 -81 12 -88 -15 -10 -735 -4 -745 6 -4 3 3 41 15 84 25
90 68 253 107 402 15 58 40 152 56 210 15 58 40 150 55 205 14 55 38 145 54
200 15 55 35 133 45 173 16 67 31 89 39 60z m-645 -1544 c5 -4 -12 -75 -64
-269 -19 -71 -55 -206 -80 -300 -25 -93 -56 -210 -69 -260 -65 -241 -98 -367
-117 -440 -11 -44 -23 -83 -25 -87 -8 -13 -37 7 -111 74 -38 35 -138 124 -223
198 -85 74 -177 155 -204 180 -28 26 -82 73 -121 105 -38 33 -90 79 -115 101
-25 23 -88 79 -140 125 -52 45 -97 86 -100 89 -3 4 -43 40 -90 80 -47 40 -105
91 -130 114 -25 23 -90 80 -145 128 -161 139 -181 158 -168 166 12 7 1894 3
1902 -4z m1095 -26 c8 -18 31 -91 51 -163 20 -71 50 -173 66 -225 15 -52 44
-153 64 -225 20 -71 44 -157 55 -190 11 -33 34 -112 51 -175 17 -63 41 -151
55 -195 13 -44 37 -129 54 -190 17 -60 38 -131 46 -158 9 -26 13 -57 10 -70
-4 -12 -38 -49 -77 -82 -38 -33 -85 -73 -103 -90 -17 -16 -131 -115 -251 -220
-120 -104 -252 -220 -293 -257 -41 -38 -80 -68 -86 -68 -6 1 -27 15 -47 33
-20 18 -86 75 -145 127 -60 52 -111 97 -114 100 -3 4 -61 55 -130 115 -69 60
-148 129 -175 154 -28 25 -87 78 -130 116 -44 39 -104 93 -133 120 l-54 51 45
174 c57 225 143 547 167 630 11 36 37 135 59 220 22 85 56 214 76 285 19 72
38 144 41 160 13 57 -8 55 456 55 l429 0 13 -32z m2281 10 c11 -10 13 -8 -150
-148 -55 -47 -109 -94 -120 -105 -12 -11 -68 -60 -126 -110 -57 -49 -106 -92
-109 -95 -3 -3 -61 -54 -130 -114 -69 -60 -156 -136 -195 -171 -88 -78 -204
-178 -264 -228 -25 -21 -50 -44 -56 -50 -5 -7 -57 -52 -115 -102 -58 -49 -121
-104 -140 -121 -134 -122 -235 -204 -244 -201 -6 2 -19 33 -29 68 -11 35 -30
100 -43 144 -13 44 -37 130 -54 190 -17 61 -42 146 -55 190 -13 44 -38 130
-55 190 -17 61 -42 146 -55 190 -13 44 -38 132 -55 195 -18 63 -43 151 -56
194 -14 44 -23 85 -20 92 6 15 2055 8 2071 -8z m-3527 -1805 c185 -164 347
-308 352 -313 3 -3 52 -46 110 -95 58 -50 106 -93 108 -97 2 -3 37 -34 78 -68
40 -35 74 -68 74 -74 0 -13 -71 -82 -180 -176 -41 -36 -77 -67 -80 -70 -3 -3
-61 -54 -130 -114 -69 -60 -154 -134 -190 -166 -36 -32 -120 -105 -188 -164
-68 -58 -140 -121 -160 -140 -229 -206 -421 -365 -398 -328 3 5 21 71 41 148
20 76 47 180 60 229 13 50 49 185 80 300 31 116 69 260 85 320 35 133 67 250
110 410 18 66 38 145 45 175 8 30 25 96 38 145 14 50 28 102 31 118 4 15 13
27 22 27 9 0 50 -30 92 -67z m1800 -120 c17 -54 45 -150 63 -213 17 -63 39
-140 49 -170 11 -30 35 -116 55 -190 20 -74 45 -160 55 -190 10 -30 34 -116
54 -190 21 -74 45 -160 55 -190 10 -30 35 -116 56 -190 20 -74 46 -163 58
-197 11 -35 18 -66 14 -69 -7 -7 -58 33 -165 129 -38 34 -98 87 -132 117 -55
48 -118 103 -311 274 -24 22 -80 71 -124 110 -44 39 -82 73 -85 76 -3 3 -59
53 -125 110 -66 58 -127 112 -135 121 -8 9 -43 40 -77 69 -47 39 -60 56 -54
68 4 8 38 40 73 71 153 131 376 326 408 356 79 72 224 195 231 195 4 0 21 -44
37 -97z"/>
</g>
</svg>
