<?xml version="1.0" standalone="no"?>
<!DOCTYPE svg PUBLIC "-//W3C//DTD SVG 20010904//EN"
 "http://www.w3.org/TR/2001/REC-SVG-20010904/DTD/svg10.dtd">
<svg version="1.0" xmlns="http://www.w3.org/2000/svg"
 width="796.000000pt" height="772.000000pt" viewBox="0 0 796.000000 772.000000"
 preserveAspectRatio="xMidYMid meet">

<g transform="translate(0.000000,772.000000) scale(0.100000,-0.100000)"
fill="#000000" stroke="none">
<path d="M5840 6858 c-30 -17 -62 -39 -70 -48 -10 -11 -38 -20 -80 -24 -36 -4
-137 -15 -225 -26 -88 -11 -225 -26 -305 -35 -80 -9 -201 -22 -270 -31 -69 -8
-170 -19 -225 -24 -55 -6 -134 -15 -175 -20 -41 -5 -142 -17 -225 -25 -82 -9
-222 -25 -310 -36 -88 -11 -203 -24 -255 -29 -52 -5 -129 -14 -170 -20 -41 -5
-172 -18 -290 -29 -118 -11 -237 -25 -265 -30 -27 -6 -77 -13 -110 -16 -202
-20 -257 -26 -410 -44 -94 -12 -238 -28 -320 -37 -83 -8 -184 -20 -225 -24
-41 -5 -115 -14 -165 -19 -49 -6 -116 -13 -147 -17 -54 -6 -59 -5 -106 28 -65
47 -133 62 -219 47 -59 -10 -70 -16 -118 -64 -43 -44 -55 -63 -70 -118 -20
-74 -16 -124 15 -190 l20 -42 -25 -85 c-13 -47 -38 -130 -55 -185 -17 -55 -39
-134 -50 -175 -11 -41 -25 -84 -30 -95 -10 -18 -19 -52 -79 -265 -12 -41 -26
-84 -31 -95 -5 -11 -16 -45 -24 -75 -14 -55 -47 -169 -91 -310 -12 -41 -38
-126 -56 -189 -32 -107 -36 -114 -70 -131 -47 -25 -103 -88 -120 -136 -19 -55
-17 -141 4 -196 18 -47 83 -115 137 -143 15 -8 35 -34 47 -62 12 -26 52 -115
88 -198 37 -82 75 -168 85 -190 10 -22 35 -80 55 -130 21 -49 48 -112 60 -140
50 -110 75 -166 75 -172 0 -3 11 -29 24 -57 13 -28 36 -80 51 -116 15 -36 42
-98 61 -138 19 -40 34 -78 34 -85 0 -7 6 -21 13 -32 7 -11 22 -42 32 -70 10
-27 21 -54 25 -60 4 -5 26 -55 50 -110 23 -55 49 -115 57 -133 14 -30 14 -38
-1 -84 -46 -144 15 -280 151 -339 55 -23 110 -24 178 -3 52 17 54 16 116 -9
139 -55 341 -138 469 -192 74 -32 194 -81 265 -110 194 -78 380 -158 469 -200
44 -20 96 -43 115 -50 20 -7 56 -22 81 -33 25 -12 90 -39 145 -61 55 -22 134
-54 175 -72 41 -17 104 -43 140 -58 64 -26 80 -43 117 -121 12 -26 53 -60 101
-83 61 -29 184 -31 222 -4 13 9 30 17 37 17 22 0 72 51 94 95 19 38 28 44 112
78 51 20 126 51 167 68 41 17 134 55 205 84 252 103 301 124 370 157 39 19 86
40 105 47 19 7 44 17 55 21 182 77 605 250 610 250 2 0 28 11 57 24 50 23 166
71 371 153 l88 35 22 -20 c84 -77 237 -73 330 8 62 55 91 120 90 202 0 70 -24
125 -78 184 -14 15 -25 30 -25 33 0 12 31 239 45 331 8 52 19 136 25 185 6 50
15 122 20 160 6 39 17 126 25 195 8 69 22 166 30 215 8 50 21 146 29 215 9 69
20 157 26 195 6 39 17 124 25 190 11 93 18 122 32 130 42 25 103 90 122 130
15 31 21 65 21 109 0 113 -51 191 -155 241 -44 21 -55 31 -65 62 -7 21 -22 63
-35 93 -12 30 -51 129 -85 220 -34 91 -68 179 -75 195 -7 17 -32 80 -55 140
-23 61 -48 125 -56 142 -8 18 -21 51 -29 73 -8 22 -21 55 -28 73 -8 17 -20 48
-27 67 -7 19 -18 49 -25 65 -7 17 -31 80 -54 140 -50 129 -76 194 -102 252
-10 23 -53 132 -94 242 l-76 200 17 33 c25 46 25 170 1 223 -20 44 -90 104
-151 129 -64 27 -142 21 -206 -16z m-79 -391 c24 -29 85 -68 130 -81 9 -2 32
-45 54 -103 21 -54 49 -125 62 -158 31 -77 243 -615 284 -720 17 -44 37 -93
44 -110 8 -16 25 -61 40 -100 14 -38 37 -97 50 -130 67 -171 196 -508 217
-568 20 -57 20 -59 2 -105 -35 -89 -21 -199 33 -265 25 -31 25 -32 -7 -247
-10 -69 -24 -165 -30 -215 -7 -49 -20 -148 -30 -220 -10 -71 -21 -159 -25
-195 -4 -36 -13 -108 -21 -160 -15 -98 -29 -202 -44 -325 -15 -127 -50 -389
-62 -462 -8 -57 -16 -76 -34 -88 -12 -8 -37 -35 -53 -59 -17 -25 -41 -48 -54
-52 -12 -4 -44 -17 -72 -30 -27 -13 -95 -41 -150 -63 -55 -22 -167 -67 -250
-101 -82 -35 -172 -71 -200 -82 -27 -11 -63 -26 -80 -33 -41 -19 -88 -38 -240
-100 -233 -95 -359 -147 -390 -160 -16 -7 -77 -32 -135 -55 -58 -23 -123 -50
-145 -60 -22 -11 -85 -37 -140 -58 -55 -22 -144 -61 -198 -86 -95 -45 -140
-56 -152 -36 -3 5 -37 19 -75 32 -75 24 -84 23 -181 -19 -36 -15 -38 -14 -125
27 -48 23 -138 62 -198 87 -61 25 -124 51 -141 58 -16 7 -79 34 -140 58 -180
73 -356 146 -389 162 -17 8 -76 32 -131 54 -55 22 -134 54 -175 72 -41 17
-100 42 -130 54 -185 77 -359 148 -450 184 -58 23 -111 46 -119 49 -7 4 -24
35 -38 69 -30 75 -81 124 -154 150 -46 16 -54 23 -71 63 -11 25 -28 63 -38 85
-10 22 -35 81 -55 130 -21 50 -43 101 -51 115 -7 14 -31 70 -54 125 -22 55
-44 107 -49 115 -4 8 -32 71 -61 140 -29 69 -56 130 -60 135 -3 6 -13 26 -20
45 -7 19 -24 59 -37 88 -12 29 -23 56 -23 60 0 4 -8 23 -19 42 -10 20 -38 83
-62 140 -23 58 -46 107 -49 110 -3 3 -28 59 -55 125 -27 66 -55 129 -62 140
-17 25 -17 54 1 74 23 27 36 81 36 146 0 51 -6 74 -31 121 -28 54 -30 62 -19
99 6 22 15 49 20 60 9 20 29 86 76 260 13 50 29 99 34 110 5 11 16 45 24 75
16 64 62 222 77 265 11 31 41 132 82 275 14 47 29 96 35 110 6 14 29 93 52
175 23 83 45 157 49 165 4 8 25 24 47 34 21 11 62 44 90 73 38 40 59 53 80 53
16 0 47 5 69 10 22 5 117 14 210 20 94 6 238 19 320 29 83 11 200 24 260 31
61 6 144 15 185 20 153 20 237 29 305 35 39 4 122 13 185 22 63 8 149 18 190
23 41 4 104 13 140 18 36 6 112 16 170 22 209 23 456 52 520 61 36 4 110 14
165 20 55 6 134 15 175 19 93 11 312 35 445 49 55 6 136 16 180 21 44 6 121
15 170 20 95 9 236 27 320 40 103 15 118 13 146 -23z"/>
</g>
</svg>
