<?xml version="1.0" standalone="no"?>
<!DOCTYPE svg PUBLIC "-//W3C//DTD SVG 20010904//EN"
 "http://www.w3.org/TR/2001/REC-SVG-20010904/DTD/svg10.dtd">
<svg version="1.0" xmlns="http://www.w3.org/2000/svg"
 width="1014.000000pt" height="958.000000pt" viewBox="0 0 1014.000000 958.000000"
 preserveAspectRatio="xMidYMid meet">

<g transform="translate(0.000000,958.000000) scale(0.100000,-0.100000)"
fill="#000000" stroke="none">
<path d="M1342 8595 c-99 -31 -172 -111 -199 -219 -27 -109 2 -207 84 -291
l46 -46 -7 -1002 c-10 -1474 -24 -3207 -35 -4521 l-10 -1159 -30 -31 c-84 -87
-106 -229 -52 -341 35 -74 78 -116 155 -151 51 -23 67 -26 135 -22 92 6 146
31 211 97 l45 46 220 3 c1340 18 1717 23 2185 32 300 5 862 14 1250 20 388 6
1004 15 1370 21 366 6 881 14 1145 18 l480 7 75 -41 c70 -37 81 -40 155 -40
134 0 225 58 282 180 54 117 29 245 -67 342 l-51 50 -5 409 c-2 225 -9 828
-14 1339 -5 512 -14 1146 -20 1410 -5 264 -15 1025 -20 1690 -6 666 -13 1280
-16 1366 l-6 155 40 47 c53 60 87 160 79 229 -13 110 -82 209 -175 255 -108
52 -255 32 -337 -47 l-30 -29 -405 9 c-223 6 -542 14 -710 20 -434 14 -587 19
-1290 35 -344 8 -764 19 -935 25 -170 5 -497 15 -725 20 -723 18 -1138 30
-1390 40 -135 5 -425 12 -645 16 -482 7 -489 7 -521 29 -66 43 -180 56 -262
30z m1118 -455 c223 -5 513 -15 645 -20 132 -6 296 -10 365 -10 128 0 635 -13
1180 -30 534 -18 982 -30 1440 -41 245 -6 589 -14 765 -19 176 -5 497 -14 714
-19 217 -5 451 -13 520 -17 120 -6 127 -8 154 -34 l28 -28 9 -934 c6 -513 15
-1223 20 -1578 6 -355 10 -782 10 -950 0 -168 4 -492 10 -720 5 -228 12 -830
16 -1336 6 -903 6 -922 -13 -941 -19 -19 -48 -20 -574 -31 -583 -13 -1443 -26
-2694 -43 -412 -5 -986 -14 -1275 -19 -1118 -19 -2142 -31 -2157 -26 -14 6
-15 94 -10 809 14 2196 28 4136 37 4989 9 889 10 948 27 967 10 11 24 26 30
35 11 13 39 14 180 11 93 -3 350 -9 573 -15z"/>
</g>
</svg>
